<mxfile host="app.diagrams.net" agent="Mozilla/5.0 (X11; Linux x86_64; rv:133.0) Gecko/20100101 Firefox/133.0" version="24.8.3">
  <diagram name="Page-1" id="q6Y4DJE6RRKYMWXtsjI4">
    <mxGraphModel dx="1195" dy="625" grid="1" gridSize="10" guides="1" tooltips="1" connect="1" arrows="1" fold="1" page="1" pageScale="1" pageWidth="850" pageHeight="1100" math="0" shadow="0">
      <root>
        <mxCell id="0" />
        <mxCell id="1" parent="0" />
        <mxCell id="PTeoal3z36dQ_Fd3HFdt-21" style="edgeStyle=orthogonalEdgeStyle;rounded=0;orthogonalLoop=1;jettySize=auto;html=1;entryX=0.549;entryY=0;entryDx=0;entryDy=0;entryPerimeter=0;" edge="1" parent="1" source="PTeoal3z36dQ_Fd3HFdt-16" target="PTeoal3z36dQ_Fd3HFdt-18">
          <mxGeometry relative="1" as="geometry">
            <mxPoint x="450" y="380" as="targetPoint" />
          </mxGeometry>
        </mxCell>
        <mxCell id="PTeoal3z36dQ_Fd3HFdt-26" value="Asks For Data" style="edgeLabel;html=1;align=center;verticalAlign=middle;resizable=0;points=[];" vertex="1" connectable="0" parent="PTeoal3z36dQ_Fd3HFdt-21">
          <mxGeometry x="-0.1448" y="-1" relative="1" as="geometry">
            <mxPoint y="-11" as="offset" />
          </mxGeometry>
        </mxCell>
        <mxCell id="PTeoal3z36dQ_Fd3HFdt-16" value="Front End" style="rounded=1;whiteSpace=wrap;html=1;" vertex="1" parent="1">
          <mxGeometry x="240" y="310" width="120" height="60" as="geometry" />
        </mxCell>
        <mxCell id="PTeoal3z36dQ_Fd3HFdt-17" value="" style="shape=umlActor;verticalLabelPosition=bottom;verticalAlign=top;html=1;outlineConnect=0;" vertex="1" parent="1">
          <mxGeometry x="160" y="310" width="30" height="60" as="geometry" />
        </mxCell>
        <mxCell id="PTeoal3z36dQ_Fd3HFdt-23" style="edgeStyle=orthogonalEdgeStyle;rounded=0;orthogonalLoop=1;jettySize=auto;html=1;entryX=0.75;entryY=0;entryDx=0;entryDy=0;" edge="1" parent="1" source="PTeoal3z36dQ_Fd3HFdt-18" target="PTeoal3z36dQ_Fd3HFdt-19">
          <mxGeometry relative="1" as="geometry" />
        </mxCell>
        <mxCell id="PTeoal3z36dQ_Fd3HFdt-27" value="Renews Data" style="edgeLabel;html=1;align=center;verticalAlign=middle;resizable=0;points=[];" vertex="1" connectable="0" parent="PTeoal3z36dQ_Fd3HFdt-23">
          <mxGeometry x="-0.3519" y="3" relative="1" as="geometry">
            <mxPoint y="-7" as="offset" />
          </mxGeometry>
        </mxCell>
        <mxCell id="PTeoal3z36dQ_Fd3HFdt-25" style="edgeStyle=orthogonalEdgeStyle;rounded=0;orthogonalLoop=1;jettySize=auto;html=1;entryX=0.5;entryY=1;entryDx=0;entryDy=0;" edge="1" parent="1" source="PTeoal3z36dQ_Fd3HFdt-18" target="PTeoal3z36dQ_Fd3HFdt-16">
          <mxGeometry relative="1" as="geometry" />
        </mxCell>
        <mxCell id="PTeoal3z36dQ_Fd3HFdt-29" value="Shows Data " style="edgeLabel;html=1;align=center;verticalAlign=middle;resizable=0;points=[];" vertex="1" connectable="0" parent="PTeoal3z36dQ_Fd3HFdt-25">
          <mxGeometry x="-0.1333" y="-2" relative="1" as="geometry">
            <mxPoint x="5" y="-8" as="offset" />
          </mxGeometry>
        </mxCell>
        <mxCell id="PTeoal3z36dQ_Fd3HFdt-18" value="Back End" style="rounded=1;whiteSpace=wrap;html=1;" vertex="1" parent="1">
          <mxGeometry x="410" y="380" width="120" height="60" as="geometry" />
        </mxCell>
        <mxCell id="PTeoal3z36dQ_Fd3HFdt-24" style="edgeStyle=orthogonalEdgeStyle;rounded=0;orthogonalLoop=1;jettySize=auto;html=1;entryX=0.5;entryY=1;entryDx=0;entryDy=0;" edge="1" parent="1" source="PTeoal3z36dQ_Fd3HFdt-19" target="PTeoal3z36dQ_Fd3HFdt-18">
          <mxGeometry relative="1" as="geometry" />
        </mxCell>
        <mxCell id="PTeoal3z36dQ_Fd3HFdt-28" value="Sends Data" style="edgeLabel;html=1;align=center;verticalAlign=middle;resizable=0;points=[];" vertex="1" connectable="0" parent="PTeoal3z36dQ_Fd3HFdt-24">
          <mxGeometry x="-0.3778" y="2" relative="1" as="geometry">
            <mxPoint y="-12" as="offset" />
          </mxGeometry>
        </mxCell>
        <mxCell id="PTeoal3z36dQ_Fd3HFdt-19" value="Database" style="rounded=1;whiteSpace=wrap;html=1;" vertex="1" parent="1">
          <mxGeometry x="550" y="480" width="120" height="60" as="geometry" />
        </mxCell>
      </root>
    </mxGraphModel>
  </diagram>
</mxfile>
